<svg width="14" height="14" viewBox="0 0 14 14" fill="none" xmlns="http://www.w3.org/2000/svg">
<path d="M10.5026 7.00049C10.4998 6.69359 10.3761 6.40018 10.1584 6.18382L7.65594 3.67549C7.54664 3.56684 7.3988 3.50586 7.24469 3.50586C7.09058 3.50586 6.94273 3.56684 6.83344 3.67549C6.77876 3.72972 6.73537 3.79423 6.70575 3.86532C6.67614 3.9364 6.66089 4.01265 6.66089 4.08966C6.66089 4.16666 6.67614 4.24291 6.70575 4.31399C6.73537 4.38508 6.77876 4.44959 6.83344 4.50382L8.7526 6.41716H2.91927C2.76456 6.41716 2.61619 6.47861 2.50679 6.58801C2.3974 6.69741 2.33594 6.84578 2.33594 7.00049C2.33594 7.1552 2.3974 7.30357 2.50679 7.41297C2.61619 7.52236 2.76456 7.58382 2.91927 7.58382H8.7526L6.83344 9.50299C6.72359 9.61206 6.66158 9.7603 6.66103 9.91509C6.66048 10.0699 6.72145 10.2186 6.83052 10.3284C6.93959 10.4382 7.08783 10.5003 7.24263 10.5008C7.39742 10.5014 7.54609 10.4404 7.65594 10.3313L10.1584 7.82299C10.3775 7.6052 10.5013 7.30941 10.5026 7.00049Z" fill="black"/>
</svg>
