<svg width="14" height="14" viewBox="0 0 14 14" fill="none" xmlns="http://www.w3.org/2000/svg">
<g clip-path="url(#clip0_20_43018)">
<path d="M4.08333 0H2.33333C1.71449 0 1.121 0.245833 0.683417 0.683417C0.245833 1.121 0 1.71449 0 2.33333L0 4.08333C0 4.70217 0.245833 5.29566 0.683417 5.73325C1.121 6.17083 1.71449 6.41667 2.33333 6.41667H4.08333C4.70217 6.41667 5.29566 6.17083 5.73325 5.73325C6.17083 5.29566 6.41667 4.70217 6.41667 4.08333V2.33333C6.41667 1.71449 6.17083 1.121 5.73325 0.683417C5.29566 0.245833 4.70217 0 4.08333 0V0ZM5.25 4.08333C5.25 4.39275 5.12708 4.6895 4.90829 4.90829C4.6895 5.12708 4.39275 5.25 4.08333 5.25H2.33333C2.02391 5.25 1.72717 5.12708 1.50838 4.90829C1.28958 4.6895 1.16667 4.39275 1.16667 4.08333V2.33333C1.16667 2.02391 1.28958 1.72717 1.50838 1.50838C1.72717 1.28958 2.02391 1.16667 2.33333 1.16667H4.08333C4.39275 1.16667 4.6895 1.28958 4.90829 1.50838C5.12708 1.72717 5.25 2.02391 5.25 2.33333V4.08333Z" fill="black"/>
<path d="M11.6666 0H9.91659C9.29775 0 8.70425 0.245833 8.26667 0.683417C7.82908 1.121 7.58325 1.71449 7.58325 2.33333V4.08333C7.58325 4.70217 7.82908 5.29566 8.26667 5.73325C8.70425 6.17083 9.29775 6.41667 9.91659 6.41667H11.6666C12.2854 6.41667 12.8789 6.17083 13.3165 5.73325C13.7541 5.29566 13.9999 4.70217 13.9999 4.08333V2.33333C13.9999 1.71449 13.7541 1.121 13.3165 0.683417C12.8789 0.245833 12.2854 0 11.6666 0V0ZM12.8333 4.08333C12.8333 4.39275 12.7103 4.6895 12.4915 4.90829C12.2728 5.12708 11.976 5.25 11.6666 5.25H9.91659C9.60717 5.25 9.31042 5.12708 9.09163 4.90829C8.87284 4.6895 8.74992 4.39275 8.74992 4.08333V2.33333C8.74992 2.02391 8.87284 1.72717 9.09163 1.50838C9.31042 1.28958 9.60717 1.16667 9.91659 1.16667H11.6666C11.976 1.16667 12.2728 1.28958 12.4915 1.50838C12.7103 1.72717 12.8333 2.02391 12.8333 2.33333V4.08333Z" fill="black"/>
<path d="M4.08333 7.58301H2.33333C1.71449 7.58301 1.121 7.82884 0.683417 8.26643C0.245833 8.70401 0 9.2975 0 9.91634L0 11.6663C0 12.2852 0.245833 12.8787 0.683417 13.3163C1.121 13.7538 1.71449 13.9997 2.33333 13.9997H4.08333C4.70217 13.9997 5.29566 13.7538 5.73325 13.3163C6.17083 12.8787 6.41667 12.2852 6.41667 11.6663V9.91634C6.41667 9.2975 6.17083 8.70401 5.73325 8.26643C5.29566 7.82884 4.70217 7.58301 4.08333 7.58301ZM5.25 11.6663C5.25 11.9758 5.12708 12.2725 4.90829 12.4913C4.6895 12.7101 4.39275 12.833 4.08333 12.833H2.33333C2.02391 12.833 1.72717 12.7101 1.50838 12.4913C1.28958 12.2725 1.16667 11.9758 1.16667 11.6663V9.91634C1.16667 9.60692 1.28958 9.31018 1.50838 9.09138C1.72717 8.87259 2.02391 8.74967 2.33333 8.74967H4.08333C4.39275 8.74967 4.6895 8.87259 4.90829 9.09138C5.12708 9.31018 5.25 9.60692 5.25 9.91634V11.6663Z" fill="black"/>
<path d="M11.6666 7.58301H9.91659C9.29775 7.58301 8.70425 7.82884 8.26667 8.26643C7.82908 8.70401 7.58325 9.2975 7.58325 9.91634V11.6663C7.58325 12.2852 7.82908 12.8787 8.26667 13.3163C8.70425 13.7538 9.29775 13.9997 9.91659 13.9997H11.6666C12.2854 13.9997 12.8789 13.7538 13.3165 13.3163C13.7541 12.8787 13.9999 12.2852 13.9999 11.6663V9.91634C13.9999 9.2975 13.7541 8.70401 13.3165 8.26643C12.8789 7.82884 12.2854 7.58301 11.6666 7.58301ZM12.8333 11.6663C12.8333 11.9758 12.7103 12.2725 12.4915 12.4913C12.2728 12.7101 11.976 12.833 11.6666 12.833H9.91659C9.60717 12.833 9.31042 12.7101 9.09163 12.4913C8.87284 12.2725 8.74992 11.9758 8.74992 11.6663V9.91634C8.74992 9.60692 8.87284 9.31018 9.09163 9.09138C9.31042 8.87259 9.60717 8.74967 9.91659 8.74967H11.6666C11.976 8.74967 12.2728 8.87259 12.4915 9.09138C12.7103 9.31018 12.8333 9.60692 12.8333 9.91634V11.6663Z" fill="black"/>
</g>
<defs>
<clipPath id="clip0_20_43018">
<rect width="14" height="14" fill="white"/>
</clipPath>
</defs>
</svg>
