<svg width="384" height="344" viewBox="0 0 384 344" fill="none" xmlns="http://www.w3.org/2000/svg">
<g clip-path="url(#clip0_2017_38254)">
<path opacity="0.8" fill-rule="evenodd" clip-rule="evenodd" d="M77.1012 64.4477C81.0499 46.2728 84.7247 34.9569 88.1195 30.4956C97.5208 18.1478 110.519 24.868 113.283 25.8305C122.991 29.2209 119.834 6.90996 128.164 2.37492C133.715 -0.64699 138.28 3.04694 141.862 13.4567C145.034 3.74497 149.867 -0.703352 156.362 0.0900618C166.105 1.29102 169.515 49.2037 182.904 38.7159C196.296 28.2237 212.713 25.8262 219.726 41.417C221.242 44.7901 221.822 39.557 232.132 21.69C242.442 3.81867 252.721 -4.05477 273.811 6.35066C283.4 11.0765 291.285 23.8882 297.477 44.7814C297.477 74.6016 312.545 92.2562 342.676 97.732C387.877 105.948 352.792 176.701 297.477 197.42C242.159 218.145 114.802 229.33 45.6901 176.974C-0.384386 142.077 10.086 104.565 77.0982 64.4477H77.1012Z" fill="url(#paint0_linear_2017_38254)"/>
<path d="M190.441 327.965C236.47 327.965 273.784 315.39 273.784 299.879C273.784 284.367 236.47 271.793 190.441 271.793C144.412 271.793 107.098 284.367 107.098 299.879C107.098 315.39 144.412 327.965 190.441 327.965Z" fill="url(#paint1_linear_2017_38254)"/>
<path opacity="0.675" fill-rule="evenodd" clip-rule="evenodd" d="M331.148 334.924C268.483 357.807 54.5881 331.633 31.8218 319.68C20.741 313.857 10.753 302.91 1.86091 286.833C0.865691 285.036 0.240132 282.865 0.0565218 280.572C-0.127088 278.278 0.138746 275.956 0.823306 273.873C1.50787 271.791 2.58321 270.033 3.92507 268.802C5.26694 267.572 6.82056 266.919 8.40639 266.92H382.178C389.935 297 372.925 319.667 331.148 334.924Z" fill="url(#paint2_linear_2017_38254)"/>
<path d="M254.395 224.609L225.893 176.085C225.219 174.927 224.382 173.995 223.438 173.352C222.494 172.708 221.465 172.369 220.423 172.356H159.137C157.035 172.356 155.037 173.761 153.667 176.085L125.165 224.609V251.247H254.395V224.609Z" fill="url(#paint3_linear_2017_38254)"/>
<path d="M246.319 252.226L221.373 209.963C220.77 208.965 220.026 208.168 219.193 207.625C218.359 207.083 217.456 206.808 216.543 206.82H163.017C161.18 206.82 159.384 207.93 158.187 209.963L133.241 252.226V275.439H246.319V252.226Z" fill="url(#paint4_linear_2017_38254)"/>
<path d="M254.395 281.774C254.395 285.472 253.252 288.797 251.447 291.026L251.081 291.459C249.65 293.038 247.903 293.891 246.107 293.887H133.456C132.437 293.887 131.463 293.619 130.564 293.124L130.117 292.864C128.644 291.91 127.392 290.354 126.513 288.385C125.634 286.416 125.166 284.118 125.165 281.769V224.899H156.52C159.983 224.899 162.773 229.049 162.773 234.082V234.147C162.773 239.185 165.596 243.248 169.06 243.248H210.5C212.165 243.245 213.761 242.283 214.94 240.571C216.118 238.858 216.782 236.536 216.787 234.113C216.787 229.057 219.58 224.899 223.04 224.899H254.398L254.395 281.774Z" fill="url(#paint5_linear_2017_38254)"/>
</g>
<defs>
<linearGradient id="paint0_linear_2017_38254" x1="198.573" y1="160.2" x2="198.573" y2="-37.8649" gradientUnits="userSpaceOnUse">
<stop stop-color="#DEDEDE" stop-opacity="0"/>
<stop offset="1" stop-color="#A9A9A9" stop-opacity="0.3"/>
</linearGradient>
<linearGradient id="paint1_linear_2017_38254" x1="181.757" y1="327.965" x2="181.757" y2="271.793" gradientUnits="userSpaceOnUse">
<stop stop-color="white" stop-opacity="0"/>
<stop offset="1" stop-color="#96A1C5" stop-opacity="0.373"/>
</linearGradient>
<linearGradient id="paint2_linear_2017_38254" x1="192" y1="344" x2="192" y2="251.754" gradientUnits="userSpaceOnUse">
<stop stop-color="white" stop-opacity="0"/>
<stop offset="1" stop-color="#919191" stop-opacity="0.15"/>
</linearGradient>
<linearGradient id="paint3_linear_2017_38254" x1="189.78" y1="172.356" x2="189.78" y2="207.818" gradientUnits="userSpaceOnUse">
<stop stop-color="#5389F5"/>
<stop offset="1" stop-color="#416FDC"/>
</linearGradient>
<linearGradient id="paint4_linear_2017_38254" x1="204.87" y1="275.439" x2="204.87" y2="203.172" gradientUnits="userSpaceOnUse">
<stop stop-color="#DCE9FF"/>
<stop offset="1" stop-color="#B6CFFF"/>
</linearGradient>
<linearGradient id="paint5_linear_2017_38254" x1="189.782" y1="224.899" x2="189.782" y2="293.887" gradientUnits="userSpaceOnUse">
<stop stop-color="#7CA5F7"/>
<stop offset="1" stop-color="#C4D6FC"/>
</linearGradient>
<clipPath id="clip0_2017_38254">
<rect width="384" height="344" fill="white"/>
</clipPath>
</defs>
</svg>
