<svg width="12" height="14" viewBox="0 0 12 14" fill="none" xmlns="http://www.w3.org/2000/svg">
<path d="M8.9165 14H3.08317C1.47492 14 0.166504 12.6916 0.166504 11.0833V2.91667C0.166504 1.30842 1.47492 0 3.08317 0H8.9165C10.5248 0 11.8332 1.30842 11.8332 2.91667V11.0833C11.8332 12.6916 10.5248 14 8.9165 14ZM3.08317 1.16667C2.11834 1.16667 1.33317 1.95183 1.33317 2.91667V11.0833C1.33317 12.0482 2.11834 12.8333 3.08317 12.8333H8.9165C9.88134 12.8333 10.6665 12.0482 10.6665 11.0833V2.91667C10.6665 1.95183 9.88134 1.16667 8.9165 1.16667H3.08317ZM9.49984 3.5C9.49984 3.178 9.2385 2.91667 8.9165 2.91667H6.58317C6.26117 2.91667 5.99984 3.178 5.99984 3.5C5.99984 3.822 6.26117 4.08333 6.58317 4.08333H8.9165C9.2385 4.08333 9.49984 3.822 9.49984 3.5ZM9.49984 7C9.49984 6.678 9.2385 6.41667 8.9165 6.41667H6.58317C6.26117 6.41667 5.99984 6.678 5.99984 7C5.99984 7.322 6.26117 7.58333 6.58317 7.58333H8.9165C9.2385 7.58333 9.49984 7.322 9.49984 7ZM9.49984 10.5C9.49984 10.178 9.2385 9.91667 8.9165 9.91667H6.58317C6.26117 9.91667 5.99984 10.178 5.99984 10.5C5.99984 10.822 6.26117 11.0833 6.58317 11.0833H8.9165C9.2385 11.0833 9.49984 10.822 9.49984 10.5ZM4.83317 4.08333V2.91667C4.83317 2.59467 4.57184 2.33333 4.24984 2.33333H3.08317C2.76117 2.33333 2.49984 2.59467 2.49984 2.91667V4.08333C2.49984 4.40533 2.76117 4.66667 3.08317 4.66667H4.24984C4.57184 4.66667 4.83317 4.40533 4.83317 4.08333ZM4.83317 7.58333V6.41667C4.83317 6.09467 4.57184 5.83333 4.24984 5.83333H3.08317C2.76117 5.83333 2.49984 6.09467 2.49984 6.41667V7.58333C2.49984 7.90533 2.76117 8.16667 3.08317 8.16667H4.24984C4.57184 8.16667 4.83317 7.90533 4.83317 7.58333ZM4.83317 11.0833V9.91667C4.83317 9.59467 4.57184 9.33333 4.24984 9.33333H3.08317C2.76117 9.33333 2.49984 9.59467 2.49984 9.91667V11.0833C2.49984 11.4053 2.76117 11.6667 3.08317 11.6667H4.24984C4.57184 11.6667 4.83317 11.4053 4.83317 11.0833Z" fill="#FF003D"/>
</svg>
