<svg width="14" height="14" viewBox="0 0 14 14" fill="none" xmlns="http://www.w3.org/2000/svg">
<g clip-path="url(#clip0_146_41855)">
<path d="M9.33333 10.5H7C6.678 10.5 6.41667 10.2392 6.41667 9.91667C6.41667 9.59408 6.678 9.33333 7 9.33333H9.33333C9.65533 9.33333 9.91667 9.59408 9.91667 9.91667C9.91667 10.2392 9.65533 10.5 9.33333 10.5ZM12.25 11.0833V4.08333C12.25 2.47508 10.9416 1.16667 9.33333 1.16667H9.23358C8.99267 0.487667 8.344 0 7.58333 0H6.41667C5.656 0 5.00733 0.487667 4.76642 1.16667H4.66667C3.05842 1.16667 1.75 2.47508 1.75 4.08333V11.0833C1.75 12.6916 3.05842 14 4.66667 14H9.33333C10.9416 14 12.25 12.6916 12.25 11.0833ZM5.25 2.33333C5.572 2.33333 5.83333 2.07258 5.83333 1.75C5.83333 1.42742 6.09525 1.16667 6.41667 1.16667H7.58333C7.90475 1.16667 8.16667 1.428 8.16667 1.75C8.16667 2.072 8.428 2.33333 8.75 2.33333H9.33333C10.2982 2.33333 11.0833 3.1185 11.0833 4.08333V11.0833C11.0833 12.0482 10.2982 12.8333 9.33333 12.8333H4.66667C3.70183 12.8333 2.91667 12.0482 2.91667 11.0833V4.08333C2.91667 3.1185 3.70183 2.33333 4.66667 2.33333H5.25ZM4.66667 9.33333C4.34467 9.33333 4.08333 9.59467 4.08333 9.91667C4.08333 10.2387 4.34467 10.5 4.66667 10.5C4.98867 10.5 5.25 10.2387 5.25 9.91667C5.25 9.59467 4.98867 9.33333 4.66667 9.33333ZM9.91667 7.58333C9.91667 7.26075 9.65533 7 9.33333 7H7C6.678 7 6.41667 7.26075 6.41667 7.58333C6.41667 7.90592 6.678 8.16667 7 8.16667H9.33333C9.65533 8.16667 9.91667 7.90592 9.91667 7.58333ZM4.66667 7C4.34467 7 4.08333 7.26133 4.08333 7.58333C4.08333 7.90533 4.34467 8.16667 4.66667 8.16667C4.98867 8.16667 5.25 7.90533 5.25 7.58333C5.25 7.26133 4.98867 7 4.66667 7ZM9.91667 5.25C9.91667 4.92742 9.65533 4.66667 9.33333 4.66667H7C6.678 4.66667 6.41667 4.92742 6.41667 5.25C6.41667 5.57258 6.678 5.83333 7 5.83333H9.33333C9.65533 5.83333 9.91667 5.57258 9.91667 5.25ZM4.66667 4.66667C4.34467 4.66667 4.08333 4.928 4.08333 5.25C4.08333 5.572 4.34467 5.83333 4.66667 5.83333C4.98867 5.83333 5.25 5.572 5.25 5.25C5.25 4.928 4.98867 4.66667 4.66667 4.66667Z" fill="black"/>
</g>
<defs>
<clipPath id="clip0_146_41855">
<rect width="14" height="14" fill="white"/>
</clipPath>
</defs>
</svg>
